<?xml version="1.0" standalone="no"?>
<!DOCTYPE svg PUBLIC "-//W3C//DTD SVG 20010904//EN"
 "http://www.w3.org/TR/2001/REC-SVG-20010904/DTD/svg10.dtd">
<svg version="1.0" xmlns="http://www.w3.org/2000/svg" width="40.000000pt" height="40.000000pt" viewBox="0 0 96.000000 96.000000" preserveAspectRatio="xMidYMid meet">
  <g transform="translate(0.000000,96.000000) scale(0.100000,-0.100000)" fill="#727272" stroke="none">
    <path d="M440 841 c0 -39 -1 -40 -53 -55 -102 -30 -186 -130 -187 -222 0 -119
104 -315 199 -374 37 -23 40 -29 41 -67 l0 -43 40 0 40 0 0 43 c1 38 4 44 41
67 95 59 199 255 199 374 -1 92 -85 192 -187 222 -52 15 -53 16 -53 55 0 39 0
39 -40 39 -40 0 -40 0 -40 -39z m-5 -377 c50 -3 119 -1 154 5 36 6 67 8 70 6
2 -3 -9 -33 -25 -67 -36 -76 -120 -168 -154 -168 -33 0 -112 84 -150 159 -36
73 -38 85 -7 77 12 -3 63 -9 112 -12z" />
  </g>
</svg>
