<svg version="1.0" xmlns="http://www.w3.org/2000/svg" width="40.000000pt" height="40.000000pt" viewBox="0 0 96.000000 96.000000" preserveAspectRatio="xMidYMid meet">
  <g transform="translate(0.000000,96.000000) scale(0.100000,-0.100000)" fill="#727272" stroke="none">
    <path d="M365 887 c-204 -68 -327 -262 -294 -466 14 -90 53 -167 118 -232 159
-158 406 -166 574 -19 41 37 95 107 86 114 -4 2 -245 108 -333 146 -27 11 -47
23 -44 25 3 3 97 37 209 76 112 38 205 71 206 73 1 1 -11 30 -27 64 -39 82
-113 155 -198 195 -58 27 -79 32 -162 34 -59 2 -110 -2 -135 -10z m320 -157
c42 -46 10 -120 -52 -120 -42 0 -73 30 -73 70 0 62 84 95 125 50z" />
  </g>
</svg>
