<?xml version="1.0" standalone="no"?>
<!DOCTYPE svg PUBLIC "-//W3C//DTD SVG 20010904//EN"
 "http://www.w3.org/TR/2001/REC-SVG-20010904/DTD/svg10.dtd">
<svg version="1.0" xmlns="http://www.w3.org/2000/svg"
 width="96.000000pt" height="96.000000pt" viewBox="0 0 96.000000 96.000000"
 preserveAspectRatio="xMidYMid meet">
<metadata>
Created by potrace 1.16, written by Peter Selinger 2001-2019
</metadata>
<g transform="translate(0.000000,96.000000) scale(0.100000,-0.100000)"
fill="#000000" stroke="none">
<path d="M0 480 l0 -480 480 0 480 0 0 480 0 480 -480 0 -480 0 0 -480z m635
416 c78 -28 134 -65 182 -121 40 -45 97 -159 90 -178 -2 -7 -69 -34 -148 -62
-79 -27 -166 -56 -193 -66 l-50 -17 40 -16 c196 -82 314 -141 314 -156 0 -42
-107 -153 -184 -189 -53 -26 -154 -51 -201 -51 -47 0 -145 25 -202 52 -112 53
-207 184 -234 324 -17 83 1 184 48 273 78 150 209 229 385 230 68 1 101 -4
153 -23z"/>
<path d="M365 887 c-204 -68 -327 -262 -294 -466 14 -90 53 -167 118 -232 159
-158 406 -166 574 -19 41 37 95 107 86 114 -4 2 -245 108 -333 146 -27 11 -47
23 -44 25 3 3 97 37 209 76 112 38 205 71 206 73 1 1 -11 30 -27 64 -39 82
-113 155 -198 195 -58 27 -79 32 -162 34 -59 2 -110 -2 -135 -10z m320 -157
c42 -46 10 -120 -52 -120 -42 0 -73 30 -73 70 0 62 84 95 125 50z"/>
</g>
</svg>
