<?xml version="1.0" standalone="no"?>
<!DOCTYPE svg PUBLIC "-//W3C//DTD SVG 20010904//EN"
 "http://www.w3.org/TR/2001/REC-SVG-20010904/DTD/svg10.dtd">
<svg version="1.0" xmlns="http://www.w3.org/2000/svg" width="20pt" height="20pt" viewBox="0 0 96.000000 96.000000" preserveAspectRatio="xMidYMid meet">
  <g transform="translate(0.000000,96.000000) scale(0.100000,-0.100000)" fill="#FFFFFF" stroke="none">
    <path d="M120 600 l0 -240 60 0 60 0 0 -60 0 -60 60 0 59 0 3 -74 3 -75 92 75
92 74 146 0 145 0 0 240 0 240 -60 0 -60 0 0 60 0 60 -300 0 -300 0 0 -240z
m540 150 l0 -30 -210 0 -210 0 0 -150 0 -150 -30 0 -30 0 0 180 0 180 240 0
240 0 0 -30z m120 -270 l0 -180 -126 0 -126 0 -48 -40 c-26 -22 -51 -40 -54
-40 -3 0 -6 18 -6 40 l0 40 -60 0 -60 0 0 180 0 180 240 0 240 0 0 -180z" />
    <path d="M390 540 l0 -30 150 0 150 0 0 30 0 30 -150 0 -150 0 0 -30z" />
    <path d="M390 420 l0 -30 90 0 90 0 0 30 0 30 -90 0 -90 0 0 -30z" />
  </g>
</svg>
